<svg height="480pt" viewBox="-4 0 480 480" width="480pt" xmlns="http://www.w3.org/2000/svg"><path d="m322.761719 72c-31.035157-.039062-60.8125 12.269531-82.761719 34.207031-33.558594-33.453125-83.953125-43.417969-127.71875-25.25-43.761719 18.171875-72.285156 60.898438-72.28125 108.28125 0 64.753907 52.488281 282.761719 117.238281 282.761719 47.058594 0 50.265625-64.921875 62.25-125.800781 1.949219-9.769531 10.574219-16.769531 20.535157-16.667969 9.960937.105469 18.441406 7.285156 20.183593 17.09375 10.5625 60.757812 9.746094 125.375 62.554688 125.375 64.75 0 117.238281-218.007812 117.238281-282.761719 0-64.75-52.488281-117.238281-117.238281-117.238281zm0 0" fill="#88d3d1"/><path d="m356.226562 105.773438c-18.125-8.175782-36.5-6.640626-41.039062 3.425781-4.542969 10.070312 6.46875 24.859375 24.589844 33.035156 18.125 8.175781 36.5 6.640625 41.042968-3.429687 4.539063-10.070313-6.472656-24.859376-24.59375-33.03125zm0 0" fill="#c5dddc"/><path d="m181.238281 448c-64.75 0-117.238281-218.007812-117.238281-282.761719-.003906-25.21875 8.171875-49.757812 23.304688-69.933593-29.753907 22.050781-47.304688 56.898437-47.304688 93.933593 0 64.753907 52.488281 282.761719 117.238281 282.761719 18.722657 0 30.441407-10.398438 38.59375-26.585938-4.667969 1.742188-9.613281 2.617188-14.59375 2.585938zm0 0" fill="#33b1a2"/><path d="m260.207031 346.625c10.5625 60.757812 9.746094 125.375 62.554688 125.375 12.847656-1.175781 24.613281-7.6875 32.4375-17.945312-60.527344-13.710938-98.910157-129.984376-94.992188-107.429688zm0 0" fill="#33b1a2"/><path d="m272 32c0 8.835938-7.164062 16-16 16s-16-7.164062-16-16 7.164062-16 16-16 16 7.164062 16 16zm0 0" fill="#88d3d1"/><path d="m200 32c0 4.417969-3.582031 8-8 8s-8-3.582031-8-8 3.582031-8 8-8 8 3.582031 8 8zm0 0" fill="#ff6283"/><path d="m96 224c0 4.417969-3.582031 8-8 8s-8-3.582031-8-8 3.582031-8 8-8 8 3.582031 8 8zm0 0" fill="#33b1a2"/><path d="m472 440c0 8.835938-7.164062 16-16 16s-16-7.164062-16-16 7.164062-16 16-16 16 7.164062 16 16zm0 0" fill="#88d3d1"/><path d="m20.9375 104c2.640625.003906 5.113281-1.300781 6.605469-3.480469 29.296875-42.820312 77.8125-68.453125 129.695312-68.519531 4.421875 0 8-3.582031 8-8s-3.578125-8-8-8c-57.160156.0625-110.621093 28.296875-142.894531 75.480469-1.675781 2.449219-1.859375 5.621093-.476562 8.246093 1.382812 2.625 4.101562 4.269532 7.070312 4.273438zm0 0" fill="#ff6283"/><g fill="#33b1a2"><path d="m165.238281 120c0-4.417969-3.578125-8-8-8-42.636719.046875-77.191406 34.601562-77.238281 77.238281 0 4.421875 3.582031 8 8 8s8-3.578125 8-8c.039062-33.804687 27.433594-61.199219 61.238281-61.238281 4.421875 0 8-3.582031 8-8zm0 0"/><path d="m173.9375 329.070312c-2.085938-.410156-4.246094.023438-6.011719 1.207032-1.761719 1.1875-2.980469 3.023437-3.390625 5.105468-1.832031 9.335938-3.480468 18.769532-5.175781 28.511719-.730469 4.863281-4.703125 8.585938-9.597656 9-4.792969.664063-9.410157-2.066406-11.136719-6.582031-1.027344-2.730469-3.457031-4.683594-6.34375-5.101562-2.886719-.414063-5.769531.769531-7.527344 3.09375-1.757812 2.328124-2.109375 5.425781-.921875 8.085937 3.949219 10.078125 13.707031 16.671875 24.527344 16.585937 1.046875 0 2.09375-.058593 3.136719-.167968 12.113281-1.304688 21.839844-10.589844 23.703125-22.632813 1.601562-9.167969 3.199219-18.488281 5.03125-27.710937.855469-4.332032-1.964844-8.535156-6.292969-9.394532zm0 0"/><path d="m285.257812 141.257812c-25.015624 24.949219-65.5 24.949219-90.515624 0-3.136719-3.035156-8.125-2.988281-11.210938.09375-3.085938 3.085938-3.132812 8.078126-.097656 11.214844 31.261718 31.191406 81.871094 31.191406 113.132812 0 3.035156-3.136718 2.988282-8.128906-.097656-11.214844-3.085938-3.082031-8.074219-3.128906-11.210938-.09375zm0 0"/></g><path d="m440 24h-16v-16c0-4.417969-3.582031-8-8-8s-8 3.582031-8 8v16h-16c-4.417969 0-8 3.582031-8 8s3.582031 8 8 8h16v16c0 4.417969 3.582031 8 8 8s8-3.582031 8-8v-16h16c4.417969 0 8-3.582031 8-8s-3.582031-8-8-8zm0 0" fill="#ff6283"/><path d="m56 440h-16v-16c0-4.417969-3.582031-8-8-8s-8 3.582031-8 8v16h-16c-4.417969 0-8 3.582031-8 8s3.582031 8 8 8h16v16c0 4.417969 3.582031 8 8 8s8-3.582031 8-8v-16h16c4.417969 0 8-3.582031 8-8s-3.582031-8-8-8zm0 0" fill="#ff6283"/><path d="m400 176h-8v-8c0-4.417969-3.582031-8-8-8s-8 3.582031-8 8v8h-8c-4.417969 0-8 3.582031-8 8s3.582031 8 8 8h8v8c0 4.417969 3.582031 8 8 8s8-3.582031 8-8v-8h8c4.417969 0 8-3.582031 8-8s-3.582031-8-8-8zm0 0" fill="#ff6283"/></svg>